# xmcd
#
# Track frame offsets: 
#        150
#        12381
#        23278
#        35014
#        46394
#        57688
#        70279
#        83382
#        96561
#        109830
#        121808
#        135804
#        150557
#        165238
#        179159
#        192547
#        206897
#        221438
#        236062
#        247215
#
# Disc length: 3451 seconds
#
# Revision: 7
# Processed by: cddbd v1.5.2PL0 Copyright (c) Steve Scherf et al.
# Submitted via: ExactAudioCopy v1.0b3
#
DISCID=1b0d7914
DTITLE=Louis Armstrong - It's Louis Armstrong_CD08
DYEAR=2005
DGENRE=Jazz
TTITLE0=When The Saints Go Marching In
TTITLE1=On The Sentimental Side
TTITLE2=It's Wonderful
TTITLE3=Something Tells Me
TTITLE4=Love Walked In
TTITLE5=Naturally
TTITLE6=I've Got A Pocketful Of Dreams
TTITLE7=I Can't Give You Anything But Love
TTITLE8=Ain't Misbehavin'
TTITLE9=Jeepers Creepers
TTITLE10=What Is This Thing Called Swing ¿
TTITLE11=Rockin' Chair
TTITLE12=Lazybones
TTITLE13=Hear Me Talkin' To Ya ¿
TTITLE14=Save It, Pretty Mama
TTITLE15=West End Blues
TTITLE16=Savoy Blues
TTITLE17=Confessin'
TTITLE18=Our Monday Date
TTITLE19=If It's Good  (Then I Want It)
EXTD=
EXTT0=
EXTT1=
EXTT2=
EXTT3=
EXTT4=
EXTT5=
EXTT6=
EXTT7=
EXTT8=
EXTT9=
EXTT10=
EXTT11=
EXTT12=
EXTT13=
EXTT14=
EXTT15=
EXTT16=
EXTT17=
EXTT18=
EXTT19=
PLAYORDER=
